<svg width="96" height="32" viewBox="0 0 96 32" fill="none" xmlns="http://www.w3.org/2000/svg">
<path d="M89.3196 0H95.0303V19.6448V24.5867H89.3196V0Z" fill="#6A18E5"/>
<path d="M26.0894 0H31.8001V19.6448V24.5867H26.0894V0Z" fill="#6A18E5"/>
<path d="M17.6663 0H23.3771V19.6448V24.5867H17.6663V0Z" fill="#6A18E5"/>
<path d="M55.8346 27.0582L62.8602 27.0174C63.3116 27.0174 63.6816 26.6465 63.6816 26.1939V23.8869H63.5583C62.9835 24.4222 62.0794 24.9984 60.1898 24.9984C56.492 24.9984 53.8624 22.198 53.8624 18.3269V7.82505H59.5324V17.3798C59.5324 18.5333 60.4772 19.5212 61.628 19.5212C62.7788 19.5212 63.6409 18.615 63.6409 17.4206V7.82505H69.2691L69.3098 30.2703C69.3098 31.0937 68.529 32 67.5842 32H55.8334V27.0582H55.8346Z" fill="#6A18E5"/>
<path d="M39.4005 16.3091C39.4005 18.657 40.756 20.221 42.8109 20.221C44.8645 20.221 46.2213 18.6558 46.2213 16.3091C46.2213 13.8796 44.8657 12.2735 42.8109 12.2735C40.7153 12.2723 39.4005 13.8784 39.4005 16.3091ZM51.768 16.1855C51.768 21.3745 48.0295 25.0404 42.8109 25.0404C37.5923 25.0404 33.8538 21.3745 33.8538 16.1855C33.8538 11.0372 37.5923 7.37252 42.8109 7.37252C48.0283 7.37252 51.768 11.0372 51.768 16.1855Z" fill="#6A18E5"/>
<path d="M9.40855 19.5212C9.40855 18.615 8.66851 17.998 7.43631 17.998C6.28554 17.998 5.46407 18.5741 5.46407 19.5212C5.46407 20.4683 6.28554 21.0457 7.43631 21.0457C8.66851 21.0865 9.40855 20.4683 9.40855 19.5212ZM5.79338 14.4558C7.47822 14.4558 8.6278 14.7847 9.5738 15.7329V13.756C9.5738 13.756 9.65643 12.6444 8.62899 12.6444H1.88961V7.82505H11.6682C14.8319 7.82505 14.9552 11.2436 14.9552 11.2436V24.5879H9.61451V23.0226H9.53189C8.91519 24.4642 7.35368 25.1232 5.5467 25.1232C2.17701 25.0812 0 22.9806 0 19.8093C0 16.638 2.30035 14.4558 5.79338 14.4558Z" fill="#6A18E5"/>
<path d="M81.0198 19.5212C81.0198 18.615 80.2798 17.998 79.0476 17.998C77.8968 17.998 77.0754 18.5741 77.0754 19.5212C77.0754 20.4683 77.8968 21.0457 79.0476 21.0457C80.2403 21.0865 81.0198 20.4683 81.0198 19.5212ZM77.4047 14.4558C79.0895 14.4558 80.2391 14.7847 81.1851 15.7329V13.756C81.1851 13.756 81.2677 12.6444 80.2403 12.6444H73.4614V7.82505H83.24C86.4037 7.82505 86.527 11.2436 86.527 11.2436V24.5879H81.1863V23.0226H81.1037C80.487 24.4642 78.9255 25.1232 77.1185 25.1232C73.75 25.1232 71.5718 22.9818 71.5718 19.8513C71.5706 16.7208 73.9128 14.4558 77.4047 14.4558Z" fill="#6A18E5"/>
<path d="M40.1812 31.8356C40.756 31.0529 41.6194 30.6004 42.6875 30.6004C43.7557 30.6004 44.6178 31.0529 45.1938 31.8356H51.0279C50.0005 28.2525 46.8368 25.8638 42.6875 25.8638C38.5383 25.8638 35.3745 28.2525 34.3471 31.8356H40.1812Z" fill="#6A18E5"/>
</svg>
